<svg t="1727358686573" class="icon" viewBox="0 0 1024 1024" version="1.1" xmlns="http://www.w3.org/2000/svg" p-id="9250" width="200" height="200"><path d="M512 0c282.760533 0 512 229.239467 512 512 0 282.760533-229.239467 512-512 512-282.760533 0-512-229.239467-512-512C0 229.239467 229.239467 0 512 0z m0 34.133333C248.081067 34.133333 34.133333 248.081067 34.133333 512s213.947733 477.866667 477.866667 477.866667 477.866667-213.947733 477.866667-477.866667S775.918933 34.133333 512 34.133333z m-35.498667 316.2112c34.4064 0 61.0304 14.336 79.872 43.4176 17.2032 27.0336 25.8048 63.0784 25.8048 108.544 0 45.056-8.6016 81.5104-25.8048 108.544-18.8416 28.672-45.4656 43.4176-79.872 43.4176-34.4064 0-61.0304-14.7456-79.872-43.4176-17.2032-27.0336-25.8048-63.0784-25.8048-108.544 0-45.8752 8.6016-81.92 25.8048-108.544 18.8416-29.0816 45.4656-43.4176 79.872-43.4176z m449.3312 5.7344v39.3216H785.749333l-8.6016 84.3776h1.2288c9.0112-9.4208 19.2512-15.9744 31.1296-20.0704a92.637867 92.637867 0 0 1 36.0448-6.5536c27.4432 0 49.9712 9.0112 67.1744 27.0336s26.2144 42.5984 26.2144 74.1376c0 30.3104-11.4688 54.8864-33.5872 74.1376-20.8896 17.2032-45.8752 25.8048-74.9568 25.8048-26.2144 0-48.7424-7.3728-67.584-21.7088-20.8896-15.5648-32.3584-37.2736-34.4064-64.3072h43.8272c1.6384 16.384 8.192 29.0816 19.2512 37.2736 9.8304 7.3728 22.9376 11.0592 39.3216 11.0592 18.0224 0 33.1776-5.7344 45.4656-16.7936 12.288-11.4688 18.432-26.2144 18.432-45.056 0-20.48-5.3248-36.4544-15.9744-47.9232-10.6496-11.4688-25.3952-17.2032-45.056-17.2032-13.1072 0-24.1664 2.048-33.9968 6.9632-10.6496 4.9152-18.432 12.6976-24.1664 23.3472h-41.7792l15.9744-163.84h176.128z m-270.7456 233.8816c8.192 0 15.5648 2.8672 21.7088 8.6016a30.242133 30.242133 0 0 1 9.0112 22.1184 31.402667 31.402667 0 0 1-9.0112 21.7088 32.529067 32.529067 0 0 1-21.7088 8.192 28.672 28.672 0 0 1-21.2992-8.192 29.696 29.696 0 0 1-9.0112-21.7088c0-9.0112 2.8672-16.384 9.0112-22.1184 5.3248-5.7344 12.288-8.6016 21.2992-8.6016zM198.792533 436.770133l46.6944 67.1744 46.2848-67.1744h50.7904L269.243733 535.893333 351.573333 648.533333H300.782933l-55.296-80.6912L189.781333 648.533333h-51.2l82.7392-112.64-73.3184-99.1232h50.7904z m277.7088-48.7424c-24.1664 0-40.96 13.1072-50.7904 39.7312-7.3728 18.0224-10.6496 43.008-10.6496 74.5472 0 31.1296 3.2768 56.1152 10.6496 74.5472 9.8304 26.2144 26.624 39.7312 50.7904 39.7312 23.7568 0 40.96-13.5168 50.7904-39.7312 6.9632-18.432 10.6496-43.4176 10.6496-74.5472 0-31.5392-3.6864-56.5248-10.6496-74.5472-9.8304-26.624-27.0336-39.7312-50.7904-39.7312z" fill="#ffffff" p-id="9251"></path></svg>