<svg t="1727360097748" class="icon" viewBox="0 0 1024 1024" version="1.1" xmlns="http://www.w3.org/2000/svg" p-id="16651" width="200" height="200"><path d="M512 0c282.760533 0 512 229.239467 512 512 0 282.760533-229.239467 512-512 512-282.760533 0-512-229.239467-512-512C0 229.239467 229.239467 0 512 0z m0 34.133333C248.081067 34.133333 34.133333 248.081067 34.133333 512s213.947733 477.866667 477.866667 477.866667 477.866667-213.947733 477.866667-477.866667S775.918933 34.133333 512 34.133333z m243.029333 316.2112c34.4064 0 61.0304 14.336 79.872 43.4176 17.2032 27.0336 25.8048 63.0784 25.8048 108.544 0 45.056-8.6016 81.5104-25.8048 108.544-18.8416 28.672-45.4656 43.4176-79.872 43.4176-34.4064 0-61.0304-14.7456-79.872-43.4176-17.2032-27.0336-25.8048-63.0784-25.8048-108.544 0-45.8752 8.6016-81.92 25.8048-108.544 18.8416-29.0816 45.4656-43.4176 79.872-43.4176z m-178.5856 239.616c8.192 0 15.5648 2.8672 21.7088 8.6016a30.242133 30.242133 0 0 1 9.0112 22.1184 31.402667 31.402667 0 0 1-9.0112 21.7088 32.529067 32.529067 0 0 1-21.7088 8.192 28.672 28.672 0 0 1-21.2992-8.192 29.696 29.696 0 0 1-9.0112-21.7088c0-9.0112 2.8672-16.384 9.0112-22.1184 5.3248-5.7344 12.288-8.6016 21.2992-8.6016zM198.792533 436.770133l46.6944 67.1744 46.2848-67.1744h50.7904L269.243733 535.893333 351.573333 648.533333H300.782933l-55.296-80.6912L189.781333 648.533333h-51.2l82.7392-112.64-73.3184-99.1232h50.7904z m283.4432-80.6912V648.533333H437.589333v-238.7968c-17.6128 16.7936-40.1408 29.0816-67.1744 36.864v-44.2368a171.349333 171.349333 0 0 0 41.3696-17.2032c14.7456-9.0112 27.0336-18.432 36.864-29.0816h33.5872z m272.7936 31.9488c-24.1664 0-40.96 13.1072-50.7904 39.7312-7.3728 18.0224-10.6496 43.008-10.6496 74.5472 0 31.1296 3.2768 56.1152 10.6496 74.5472 9.8304 26.2144 26.624 39.7312 50.7904 39.7312 23.7568 0 40.96-13.5168 50.7904-39.7312 6.9632-18.432 10.6496-43.4176 10.6496-74.5472 0-31.5392-3.6864-56.5248-10.6496-74.5472-9.8304-26.624-27.0336-39.7312-50.7904-39.7312z" fill="#ffffff" p-id="16652"></path></svg>