<svg t="1727356786458" class="icon" viewBox="0 0 1024 1024" version="1.1" xmlns="http://www.w3.org/2000/svg" p-id="1447" width="200" height="200"><path d="M235.093333 141.568a32.768 32.768 0 0 0-32.426666 28.330667l-0.298667 4.437333V297.813333c0 16.554667 12.288 30.293333 28.288 32.426667l4.437333 0.298667h123.477334a32.725333 32.725333 0 0 0 4.437333-65.194667l-4.437333-0.298667h-41.770667a316.544 316.544 0 1 1-112.768 186.752 32.725333 32.725333 0 0 0-64.298667-12.373333 381.952 381.952 0 1 0 645.12-197.546667 381.994667 381.994667 0 0 0-517.034666-21.333333V174.378667a32.725333 32.725333 0 0 0-32.725334-32.768z" fill="#ffffff" p-id="1448"></path></svg>